<svg width="48" height="48" viewBox="0 0 48 48" fill="none" xmlns="http://www.w3.org/2000/svg">
<rect x="1" y="1" width="46" height="46" rx="7" fill="#F30AEA"/>
<rect x="1" y="1" width="46" height="46" rx="7" stroke="white" stroke-width="2"/>
<path d="M24 18.5C24.663 18.5 25.2989 18.7634 25.7678 19.2322C26.2366 19.7011 26.5 20.337 26.5 21C26.5 21.3283 26.4353 21.6534 26.3097 21.9567C26.1841 22.26 25.9999 22.5356 25.7678 22.7678C25.5356 22.9999 25.26 23.1841 24.9567 23.3097C24.6534 23.4353 24.3283 23.5 24 23.5C23.337 23.5 22.7011 23.2366 22.2322 22.7678C21.7634 22.2989 21.5 21.663 21.5 21C21.5 20.337 21.7634 19.7011 22.2322 19.2322C22.7011 18.7634 23.337 18.5 24 18.5ZM24 14C25.8565 14 27.637 14.7375 28.9497 16.0503C30.2625 17.363 31 19.1435 31 21C31 26.25 24 34 24 34C24 34 17 26.25 17 21C17 19.1435 17.7375 17.363 19.0503 16.0503C20.363 14.7375 22.1435 14 24 14ZM24 16C22.6739 16 21.4021 16.5268 20.4645 17.4645C19.5268 18.4021 19 19.6739 19 21C19 22 19 24 24 30.71C29 24 29 22 29 21C29 19.6739 28.4732 18.4021 27.5355 17.4645C26.5979 16.5268 25.3261 16 24 16Z" fill="white"/>
</svg>
